<svg preserveAspectRatio="xMidYMid meet" data-bbox="17.9 17.332 168.137 166.558" viewBox="17.9 17.332 168.137 166.558" xmlns="http://www.w3.org/2000/svg" data-type="color" role="img" aria-labelledby="comp-kflumzpj-svgtitle"><title id="comp-kflumzpj-svgtitle"/>
    <g>
        <path d="M83.21 116.44c-3.15.51-6.21.77-9.17.77a47.2 47.2 0 01-7.32-.56c-4.77-.75-9.18-2.27-13.15-4.53-.96.67-2.12 1.06-3.37 1.06-3.25 0-5.88-2.63-5.88-5.88s2.63-5.88 5.88-5.88a5.877 5.877 0 015.41 8.18c3.5 1.92 7.37 3.22 11.55 3.89 4.77.76 9.96.7 15.44-.19 6.42-1.03 11.73-2.97 14.49-4.1-10.97-2.05-50.81-9.28-43.21-59.06-.13-.02-.21-.05-.29-.04-.5.08-1.01.15-1.51.25-7.32 1.38-13.85 4.47-19.46 9.35-8.51 7.4-13.35 16.74-14.44 28-.08.8-.19 1.6-.28 2.4v2.81c.06.27.13.53.16.8.32 2.31.44 4.67.97 6.93 2.37 10.16 7.74 18.41 16.17 24.61 6.31 4.64 13.42 7.24 21.21 7.87 2.45.2 4.93.02 7.4-.09 2.66-.13 5.26-.72 7.81-1.48 7.14-2.13 17.67-8.71 24.52-18.52-3.1 1.13-7.62 2.55-12.93 3.41z" fill="#fdd900" data-color="1"/>
        <path d="M84.42 89.38c-1.5-2.81-2.73-5.63-3.68-8.43-.81-2.39-1.42-4.76-1.83-7.11-.83-4.76-.81-9.42.05-13.91a5.83 5.83 0 01-2.09-2.85c-1.05-3.08.6-6.42 3.67-7.47 3.08-1.05 6.42.6 7.47 3.67a5.888 5.888 0 01-6 7.77c-.69 3.93-.67 8.01.04 12.19.82 4.76 2.55 9.66 5.15 14.55 3.05 5.74 6.59 10.15 8.55 12.39-1.59-11.05-7.59-51.08 41.97-59.94-.02-.13-.02-.22-.05-.29-.23-.45-.47-.9-.72-1.35-3.66-6.49-8.69-11.67-15.12-15.41-9.75-5.67-20.15-7.24-31.16-4.64-.78.18-1.57.34-2.36.51-.89.3-1.78.6-2.66.91-.24.14-.46.29-.71.41-2.09 1.04-4.28 1.92-6.25 3.15-8.86 5.52-14.93 13.27-18.08 23.24-2.36 7.47-2.52 15.04-.61 22.61.6 2.38 1.57 4.68 2.47 6.97.98 2.48 2.38 4.75 3.92 6.91 4.32 6.07 13.94 13.91 25.44 17.24a70.067 70.067 0 01-7.41-11.12z" fill="#fdd900" data-color="1"/>
        <path d="M110.43 81.8c2.18-2.32 4.45-4.4 6.8-6.2 2-1.54 4.04-2.88 6.14-4.02 4.24-2.32 8.66-3.8 13.18-4.43a5.92 5.92 0 012.02-2.9 5.888 5.888 0 018.25 1.07 5.888 5.888 0 01-1.07 8.25 5.888 5.888 0 01-8.25-1.07c-.5-.65-.84-1.36-1.03-2.11-3.94.62-7.8 1.94-11.52 3.97-4.24 2.31-8.32 5.53-12.12 9.57-4.45 4.73-7.48 9.51-8.97 12.09 9.95-5.07 45.91-23.66 70.27 20.41.11-.06.2-.09.25-.14.35-.37.7-.74 1.04-1.11 4.96-5.56 8.24-11.99 9.71-19.28 2.23-11.05.35-21.41-5.65-30.99-.43-.68-.83-1.38-1.24-2.07l-1.72-2.23c-.21-.18-.43-.34-.62-.54-1.66-1.64-3.2-3.43-5-4.9-8.08-6.6-17.37-9.86-27.82-9.63-7.83.17-15.05 2.46-21.6 6.71-2.06 1.34-3.92 2.99-5.8 4.59-2.03 1.73-3.73 3.78-5.28 5.94-4.36 6.05-8.68 17.68-8.12 29.63a69.07 69.07 0 018.15-10.61z" fill="#fdd900" data-color="1"/>
        <path d="M125.99 103.97c2.9 1.31 5.6 2.8 8.06 4.43 2.1 1.39 4.03 2.9 5.79 4.51 3.56 3.27 6.39 6.97 8.45 11.05a5.884 5.884 0 015.05 9.14 5.884 5.884 0 01-8.16 1.65 5.884 5.884 0 01-1.65-8.16c.45-.68 1.02-1.24 1.66-1.66-1.86-3.53-4.36-6.76-7.47-9.63-3.55-3.27-7.92-6.09-12.96-8.38a66.381 66.381 0 00-14.34-4.59c8.01 7.78 37.19 35.83 3.33 73.1.1.09.15.16.22.2.46.21.92.43 1.39.63 6.86 2.9 14.01 3.94 21.38 2.98 11.18-1.46 20.38-6.57 27.51-15.34.51-.62 1.04-1.23 1.56-1.84l1.56-2.34c.1-.25.19-.51.31-.76 1.02-2.1 2.22-4.13 3.03-6.31 3.65-9.78 3.73-19.62.14-29.44-2.69-7.35-7.18-13.45-13.32-18.29-1.93-1.52-4.1-2.75-6.21-4.01-2.29-1.37-4.78-2.31-7.33-3.08-7.13-2.17-19.53-2.52-30.67 1.87 3.21.73 7.77 2.06 12.67 4.27z" fill="#fdd900" data-color="1"/>
        <path d="M110.01 125.85c-.31 3.17-.84 6.2-1.6 9.06-.64 2.44-1.45 4.75-2.4 6.93-1.95 4.42-4.54 8.3-7.74 11.56.4 1.09.49 2.32.17 3.53a5.887 5.887 0 01-7.19 4.19 5.887 5.887 0 01-4.19-7.19 5.887 5.887 0 019.3-3.15c2.75-2.9 4.99-6.3 6.7-10.18 1.95-4.42 3.21-9.46 3.76-14.97.64-6.47.12-12.1-.27-15.05-4.79 10.09-21.93 46.76-68.12 26.72-.05.12-.11.19-.11.27-.05.51-.11 1.01-.15 1.52-.53 7.43.79 14.53 4.07 21.2 4.98 10.12 12.79 17.18 23.39 21.1.75.28 1.5.59 2.25.88l2.72.72c.27.01.55.01.82.05 2.32.28 4.63.77 6.95.83 10.43.3 19.78-2.79 27.92-9.35 6.09-4.92 10.42-11.13 13.02-18.5.82-2.32 1.28-4.76 1.79-7.17.56-2.61.64-5.27.56-7.93-.24-7.45-3.92-19.3-11.66-28.43.31 3.27.53 8.01.01 13.36z" fill="#fdd900" data-color="1"/>
    </g>
</svg>