<svg preserveAspectRatio="xMidYMid meet" data-bbox="2.64 3.02 345.87 88.77" viewBox="0 0 351.53 94.59" xmlns="http://www.w3.org/2000/svg" data-type="ugc" role="img" aria-labelledby="comp-kbsohjvv-svgtitle"><title id="comp-kbsohjvv-svgtitle"/>
    <g>
        <path d="M209.82 23.76l4.79-13.53h3.28l4.79 13.53h-3l-.9-2.76h-5.15l-.88 2.76h-2.93zm6.39-10.53l-1.79 5.44h3.59l-1.8-5.44z" fill="#595a5c"/>
        <path fill="#595a5c" d="M227.08 10.23v13.53h-2.82V10.23h2.82z"/>
        <path d="M229.72 23.76V10.23h6.83c1.21 0 2.22.32 3.01.94.86.69 1.28 1.63 1.28 2.82 0 1.64-.7 2.73-2.11 3.26 1.07.43 1.62 1.27 1.66 2.53l.08 2.21c0 .4.02.67.07.81.09.28.26.46.52.57v.38h-3.12c-.17-.33-.27-1.14-.29-2.41V20.1c-.01-.68-.23-1.13-.68-1.4-.34-.2-.87-.3-1.61-.3h-2.81v5.35h-2.83zm2.83-7.62h3.28c1.46 0 2.18-.6 2.18-1.79 0-1.2-.69-1.77-2.07-1.77h-3.39v3.56z" fill="#595a5c"/>
        <path d="M243.32 23.76V10.23h5.65c3.15 0 4.73 1.42 4.73 4.24 0 2.98-1.58 4.46-4.73 4.46-1.36 0-2.29.01-2.83.01v4.82h-2.82zm2.83-7.16h2.36c1.57 0 2.36-.71 2.36-2.1 0-1.29-.79-1.91-2.36-1.91h-2.36v4.01z" fill="#595a5c"/>
        <path d="M261.24 24.14c-2.07 0-3.69-.66-4.84-2.02-1.11-1.27-1.66-2.95-1.66-5.04 0-2.12.55-3.84 1.64-5.13 1.15-1.39 2.77-2.07 4.86-2.07 2.08 0 3.71.68 4.86 2.07 1.09 1.29 1.64 3.01 1.64 5.13 0 2.09-.55 3.77-1.65 5.04-1.17 1.36-2.79 2.02-4.85 2.02m0-2.41c1.24 0 2.2-.49 2.84-1.46.56-.81.83-1.89.83-3.22 0-1.34-.27-2.44-.82-3.27-.64-1.02-1.59-1.52-2.86-1.52-1.27 0-2.23.5-2.86 1.52-.55.83-.81 1.93-.81 3.27 0 1.33.26 2.4.81 3.22.65.97 1.6 1.46 2.87 1.46" fill="#595a5c"/>
        <path d="M269.59 23.76V10.23h6.83c1.22 0 2.22.32 3.01.94.86.69 1.29 1.63 1.29 2.82 0 1.64-.7 2.73-2.1 3.26 1.06.43 1.6 1.27 1.65 2.53l.08 2.21c0 .4.02.67.07.81.08.28.25.46.5.57v.38h-3.11c-.16-.33-.26-1.14-.27-2.41V20.1c-.01-.68-.24-1.13-.68-1.4-.34-.2-.88-.3-1.61-.3h-2.82v5.35h-2.84zm2.82-7.62h3.28c1.45 0 2.19-.6 2.19-1.79 0-1.2-.71-1.77-2.09-1.77h-3.39v3.56z" fill="#595a5c"/>
        <path fill="#595a5c" d="M286.12 23.76V12.65h-4.1v-2.42h11.01v2.42h-4.1v11.11h-2.81z"/>
        <path d="M302.04 14.3c-.06-.72-.37-1.26-.96-1.63-.52-.32-1.15-.49-1.91-.49-.63 0-1.16.14-1.56.41-.46.31-.72.77-.72 1.4 0 .51.45.92 1.35 1.25.18.06.83.23 1.96.48 1.69.37 2.84.76 3.46 1.17.98.65 1.48 1.69 1.48 3.11s-.6 2.49-1.79 3.22c-1.01.62-2.26.93-3.78.93-1.59 0-2.88-.37-3.83-1.09-1.08-.77-1.65-1.94-1.72-3.51h2.73c.06 1.51 1 2.26 2.82 2.26.74 0 1.35-.11 1.84-.31.69-.28 1.04-.71 1.04-1.33 0-.61-.34-1.08-1.01-1.39-.26-.13-.87-.28-1.83-.5-1.79-.38-3-.76-3.61-1.11-1.17-.65-1.75-1.66-1.75-3.01 0-1.43.53-2.53 1.62-3.28.95-.66 2.17-.99 3.66-.99 1.45 0 2.65.36 3.6 1.11 1.02.8 1.58 1.9 1.67 3.32h-2.76z" fill="#595a5c"/>
        <path d="M222.33 39.19c-.17 1.59-.79 2.83-1.84 3.74-1.05.91-2.39 1.37-4 1.37-2.01 0-3.57-.69-4.7-2.08-1.01-1.26-1.52-2.93-1.52-4.99 0-2.08.5-3.78 1.51-5.07 1.12-1.42 2.69-2.13 4.71-2.13 1.56 0 2.87.42 3.94 1.27 1.08.83 1.71 2.02 1.89 3.55h-2.82c-.1-.76-.43-1.36-1.01-1.79-.53-.39-1.2-.58-1.99-.58-1.2 0-2.08.51-2.66 1.55-.46.82-.69 1.88-.69 3.18 0 1.26.23 2.31.69 3.13.59 1 1.48 1.5 2.66 1.5.82 0 1.5-.22 2.04-.71.53-.48.86-1.13.96-1.94h2.83z" fill="#595a5c"/>
        <path d="M229.83 44.29c-2.08 0-3.68-.67-4.84-2.03-1.1-1.26-1.66-2.94-1.66-5.04 0-2.12.56-3.84 1.64-5.13 1.16-1.38 2.78-2.07 4.86-2.07 2.09 0 3.72.68 4.86 2.07 1.1 1.3 1.64 3.01 1.64 5.13 0 2.1-.55 3.78-1.65 5.04-1.18 1.36-2.79 2.03-4.85 2.03m0-2.4c1.26 0 2.21-.49 2.85-1.45.56-.82.83-1.9.83-3.22 0-1.35-.27-2.44-.8-3.29-.64-.99-1.59-1.49-2.87-1.49-1.27 0-2.21.5-2.86 1.49-.54.85-.81 1.93-.81 3.29 0 1.33.27 2.4.81 3.22.63.95 1.58 1.45 2.85 1.45" fill="#595a5c"/>
        <path d="M238.18 43.91V30.39H245c1.22 0 2.23.31 3.01.93.86.69 1.28 1.64 1.28 2.83 0 1.64-.7 2.73-2.1 3.25 1.07.44 1.61 1.28 1.66 2.55l.08 2.21c0 .39.02.64.07.82.08.25.26.44.51.56v.37h-3.11c-.18-.34-.28-1.15-.29-2.41v-1.24c-.01-.67-.24-1.13-.68-1.4-.34-.2-.87-.3-1.6-.3h-2.81v5.35h-2.84zm2.83-7.61h3.27c1.46 0 2.19-.59 2.19-1.8 0-1.19-.69-1.77-2.07-1.77h-3.39v3.57z" fill="#595a5c"/>
        <path d="M251.79 43.91V30.39h5.65c3.14 0 4.73 1.41 4.73 4.23 0 2.98-1.59 4.47-4.73 4.47-1.37 0-2.3 0-2.83.01v4.81h-2.82zm2.82-7.15h2.35c1.58 0 2.38-.71 2.38-2.11 0-1.29-.8-1.93-2.38-1.93h-2.35v4.04z" fill="#595a5c"/>
        <path d="M269.71 44.29c-2.08 0-3.69-.67-4.85-2.03-1.11-1.26-1.65-2.94-1.65-5.04 0-2.12.54-3.84 1.63-5.13 1.16-1.38 2.78-2.07 4.87-2.07 2.09 0 3.7.68 4.85 2.07 1.1 1.3 1.66 3.01 1.66 5.13 0 2.1-.56 3.78-1.67 5.04-1.17 1.36-2.79 2.03-4.84 2.03m0-2.4c1.25 0 2.2-.49 2.84-1.45.56-.82.83-1.9.83-3.22 0-1.35-.27-2.44-.81-3.29-.65-.99-1.6-1.49-2.86-1.49-1.26 0-2.23.5-2.87 1.49-.54.85-.81 1.93-.81 3.29 0 1.33.27 2.4.81 3.22.64.95 1.6 1.45 2.87 1.45" fill="#595a5c"/>
        <path d="M278.04 43.91V30.39h6.83c1.22 0 2.22.31 3.02.93.84.69 1.28 1.64 1.28 2.83 0 1.64-.71 2.73-2.11 3.25 1.06.44 1.62 1.28 1.66 2.55l.08 2.21c0 .39.02.64.07.82.09.25.26.44.51.56v.37h-3.09c-.18-.34-.29-1.15-.29-2.41v-1.24c-.01-.67-.24-1.13-.68-1.4-.35-.2-.88-.3-1.61-.3h-2.82v5.35h-2.85zm2.83-7.61h3.28c1.46 0 2.19-.59 2.19-1.8 0-1.19-.69-1.77-2.08-1.77h-3.39v3.57z" fill="#595a5c"/>
        <path d="M290.6 43.91l4.78-13.52h3.28l4.79 13.52h-3l-.91-2.75h-5.15l-.87 2.75h-2.92zm6.39-10.52l-1.8 5.44h3.6l-1.8-5.44z" fill="#595a5c"/>
        <path fill="#595a5c" d="M308.18 43.91V32.8h-4.1v-2.41h11.01v2.41h-4.08v11.11h-2.83z"/>
        <path fill="#595a5c" d="M319.38 30.39v13.52h-2.84V30.39h2.84z"/>
        <path d="M327.37 44.29c-2.1 0-3.69-.67-4.85-2.03-1.11-1.26-1.66-2.94-1.66-5.04 0-2.12.55-3.84 1.64-5.13 1.16-1.38 2.78-2.07 4.87-2.07 2.08 0 3.7.68 4.85 2.07 1.09 1.3 1.64 3.01 1.64 5.13 0 2.1-.55 3.78-1.66 5.04-1.16 1.36-2.78 2.03-4.83 2.03m0-2.4c1.24 0 2.19-.49 2.83-1.45.56-.82.83-1.9.83-3.22 0-1.35-.28-2.44-.81-3.29-.64-.99-1.6-1.49-2.86-1.49-1.27 0-2.23.5-2.88 1.49-.53.85-.81 1.93-.81 3.29 0 1.33.28 2.4.81 3.22.66.95 1.62 1.45 2.89 1.45" fill="#595a5c"/>
        <path fill="#595a5c" d="M338.22 43.91h-2.64V30.39h2.96l5.43 9.5v-9.5h2.63v13.52h-2.83l-5.55-9.72v9.72z"/>
        <path d="M216.22 64.45c-2.07 0-3.68-.67-4.84-2.01-1.11-1.27-1.65-2.95-1.65-5.06 0-2.11.55-3.82 1.64-5.12 1.16-1.38 2.79-2.06 4.86-2.06 2.08 0 3.71.68 4.86 2.06 1.09 1.3 1.64 3.01 1.64 5.12 0 2.11-.55 3.79-1.66 5.06-1.16 1.34-2.78 2.01-4.85 2.01m0-2.41c1.26 0 2.21-.49 2.85-1.45.56-.82.83-1.9.83-3.22 0-1.35-.28-2.44-.81-3.28-.64-1-1.61-1.51-2.87-1.51s-2.22.51-2.86 1.51c-.54.84-.82 1.93-.82 3.28 0 1.33.28 2.4.82 3.22.65.96 1.6 1.45 2.86 1.45" fill="#595a5c"/>
        <path fill="#595a5c" d="M224.57 64.08V50.54h9.63v2.42h-6.79v3.08h5.92v2.3h-5.92v5.74h-2.84z"/>
        <path fill="#595a5c" d="M240.55 50.54h2.99l2.98 10.36 2.96-10.36h2.92l-4.58 13.54h-2.69l-4.58-13.54z"/>
        <path fill="#595a5c" d="M256.8 50.54v13.54h-2.83V50.54h2.83z"/>
        <path fill="#595a5c" d="M258.88 64.08V50.54h9.96v2.42h-7.13v2.86h6.62v2.34h-6.62v3.51h7.45v2.41h-10.28z"/>
        <path fill="#595a5c" d="M274.92 64.08V52.96h-4.09v-2.42h11v2.42h-4.08v11.12h-2.83z"/>
        <path fill="#595a5c" d="M286.02 64.08h-2.63V50.54h2.95l5.43 9.5v-9.5h2.63v13.54h-2.82l-5.56-9.73v9.73z"/>
        <path d="M296.05 64.08l4.8-13.54h3.27l4.79 13.54h-2.99l-.91-2.76h-5.16l-.87 2.76h-2.93zm6.4-10.53l-1.79 5.44h3.6l-1.81-5.44z" fill="#595a5c"/>
        <path fill="#595a5c" d="M313.24 64.08h-2.64V50.54h4.14l2.44 10.7 2.43-10.7h4.1v13.54h-2.65V52.69l-2.52 11.39h-2.79l-2.51-11.64v11.64z"/>
        <path fill="#595a5c" d="M196.22 3.02v67.89h-1.66V3.02h1.66z"/>
        <linearGradient gradientTransform="translate(3095.085 76.832)" y2="-74.555" x2="-3058.269" y1="-19.098" x1="-3058.269" gradientUnits="userSpaceOnUse" id="fa1ed636-22b9-4838-abff-d46f467feda9">
            <stop offset="0" stop-color="#0751a0"/>
            <stop offset=".253" stop-color="#065da8"/>
            <stop offset=".778" stop-color="#127abe"/>
            <stop offset="1" stop-color="#1589ca"/>
        </linearGradient>
        <path d="M36.82 29.25l5.32 15.51H31.5l5.32-15.51zm6.62-19.33h-17.8L7.07 64.05h17.8l2.78-8.11h18.32l2.77 8.11h17.81L47.98 9.92h-4.54z" fill="url(#fa1ed636-22b9-4838-abff-d46f467feda9)"/>
        <linearGradient gradientTransform="translate(3095.085 76.832)" y2="-70.094" x2="-3001.404" y1="-11.186" x1="-3001.404" gradientUnits="userSpaceOnUse" id="458ab6b7-4a21-43f6-90ff-a21eb7b42f89">
            <stop offset="0" stop-color="#0751a0"/>
            <stop offset=".253" stop-color="#065da8"/>
            <stop offset=".778" stop-color="#127abe"/>
            <stop offset="1" stop-color="#1589ca"/>
        </linearGradient>
        <path d="M73.54 15.33c-5.41 5.47-8.13 12.66-8.13 21.56 0 9.18 2.66 16.42 7.97 21.73 5.31 5.31 12.6 7.96 21.87 7.96 7.45 0 13.58-2.06 18.41-6.21 4.48-3.86 7.24-9.04 8.27-15.58h-17.79c-1.12 5.36-4.19 8.05-9.21 8.05-4.27 0-7.3-1.57-9.06-4.7-1.36-2.39-2.03-5.94-2.03-10.62 0-10.93 3.47-16.41 10.39-16.41 5.78 0 9.08 2.77 9.89 8.29h17.51c-.87-6.89-3.61-12.25-8.21-16.07-4.82-3.98-11.48-5.97-19.96-5.97-8.01 0-14.66 2.64-19.92 7.97" fill="url(#458ab6b7-4a21-43f6-90ff-a21eb7b42f89)"/>
        <linearGradient gradientTransform="translate(3095.085 76.832)" y2="-71.376" x2="-2943.611" y1="-15.794" x1="-2943.611" gradientUnits="userSpaceOnUse" id="7cc1f504-218b-4313-a918-9c228a87f946">
            <stop offset="0" stop-color="#0751a0"/>
            <stop offset=".253" stop-color="#065da8"/>
            <stop offset=".778" stop-color="#127abe"/>
            <stop offset="1" stop-color="#1589ca"/>
        </linearGradient>
        <path fill="url(#7cc1f504-218b-4313-a918-9c228a87f946)" d="M163.54 9.93l-12.07 35.19L139.4 9.93h-17.79l18.56 54.14h22.61l18.56-54.14h-17.8z"/>
        <path d="M7.42 82.09v7.48H5.47v-7.48H2.64V80.5h7.59v1.59H7.42z" fill="#0473bb"/>
        <path d="M11.02 85.02c0-1.29.29-2.33.88-3.12.46-.63 1.09-1.08 1.89-1.35.57-.2 1.15-.3 1.73-.3.59 0 1.16.1 1.7.29.8.28 1.42.73 1.89 1.35.59.79.88 1.83.88 3.13 0 1.29-.29 2.33-.88 3.13-.46.62-1.09 1.08-1.89 1.36-.56.2-1.13.3-1.7.3-.6 0-1.17-.1-1.72-.29-.8-.29-1.42-.74-1.89-1.35-.59-.8-.89-1.85-.89-3.15zm1.95 0c0 1.14.29 1.99.87 2.55.44.42 1.01.64 1.68.64.66 0 1.21-.21 1.65-.64.58-.56.87-1.41.87-2.55s-.29-1.98-.87-2.53c-.44-.42-.99-.63-1.65-.63-.66 0-1.22.21-1.67.63-.59.56-.88 1.4-.88 2.53zm3.35-7.28l1.48 1.84h-1.45l-.83-1.04-.84 1.04h-1.45l1.49-1.84h1.6zm1.56.44h-.92c0-.39.04-.69.11-.89.07-.2.23-.39.48-.55.24-.17.36-.34.36-.52s-.05-.3-.14-.38a.568.568 0 00-.33-.11c-.2 0-.34.05-.42.16-.08.11-.12.27-.12.5l-1.01.02c0-.55.16-.95.49-1.2.27-.21.61-.32 1-.32.35 0 .65.07.91.2.45.23.67.59.67 1.1 0 .24-.06.44-.17.6-.12.16-.3.33-.55.5-.23.17-.36.47-.36.89z" fill="#0473bb"/>
        <path d="M26.66 80.5h1.82v9.07h-1.95l-3.8-6.47-.03 6.47h-1.82V80.5h2.06l3.69 6.32.03-6.32z" fill="#0473bb"/>
        <path d="M34.84 86.2v-1.54h3.9v4.91h-1.3l-.2-1.14c-.39.42-.72.72-.99.9-.53.33-1.17.49-1.92.49-1.2 0-2.19-.4-2.98-1.19-.88-.88-1.31-2.07-1.31-3.59 0-1.34.37-2.45 1.1-3.33.83-.98 1.99-1.47 3.47-1.47 1.3 0 2.33.35 3.1 1.06.65.6.98 1.26.98 1.99h-1.95c0-.26-.17-.55-.5-.87-.41-.41-.93-.62-1.54-.62-.76 0-1.38.25-1.86.75-.55.58-.82 1.42-.82 2.51 0 1.13.28 1.96.85 2.49.46.43 1.08.65 1.85.65.58 0 1.06-.18 1.47-.54.4-.36.67-.85.8-1.46h-2.15z" fill="#0473bb"/>
        <path d="M52.05 83.45H50.1c-.13-.44-.29-.76-.48-.97-.36-.4-.88-.59-1.57-.59-.61 0-1.11.21-1.51.62-.54.55-.81 1.4-.81 2.57 0 .88.18 1.6.53 2.15.41.63 1.01.94 1.78.94.54 0 .99-.15 1.35-.44.36-.29.6-.71.71-1.26h1.95c-.21 1.03-.64 1.83-1.29 2.41-.71.63-1.63.95-2.77.95-1.27 0-2.29-.41-3.06-1.22-.8-.85-1.21-2.03-1.21-3.56 0-1.53.42-2.73 1.25-3.59.78-.81 1.79-1.21 3.04-1.21 1.28 0 2.3.37 3.07 1.1.65.61.97 1.32.97 2.1z" fill="#0473bb"/>
        <path d="M53.18 85.02c0-1.29.29-2.33.88-3.12.46-.63 1.09-1.08 1.89-1.35.57-.2 1.15-.3 1.73-.3.59 0 1.16.1 1.7.29.8.28 1.42.73 1.89 1.35.59.79.88 1.83.88 3.13 0 1.29-.29 2.33-.88 3.13-.46.62-1.09 1.08-1.89 1.36-.56.2-1.13.3-1.7.3-.6 0-1.17-.1-1.72-.29-.8-.29-1.42-.74-1.89-1.35-.59-.8-.89-1.85-.89-3.15zm1.95 0c0 1.14.29 1.99.87 2.55.44.42 1.01.64 1.68.64.66 0 1.21-.21 1.65-.64.58-.56.87-1.41.87-2.55s-.29-1.98-.87-2.53c-.44-.42-.99-.63-1.65-.63-.66 0-1.22.21-1.67.63-.59.56-.88 1.4-.88 2.53zm3.34-7.28l1.48 1.84H58.5l-.83-1.04-.84 1.04h-1.45l1.49-1.84h1.6z" fill="#0473bb"/>
        <path d="M68.81 80.5h1.82v9.07h-1.95l-3.8-6.47-.03 6.47h-1.82V80.5h2.06l3.69 6.32.03-6.32z" fill="#0473bb"/>
        <path d="M76.99 86.2v-1.54h3.9v4.91h-1.3l-.2-1.14c-.39.42-.72.72-.99.9-.53.33-1.17.49-1.92.49-1.2 0-2.19-.4-2.98-1.19-.88-.88-1.31-2.07-1.31-3.59 0-1.34.37-2.45 1.1-3.33.83-.98 1.99-1.47 3.47-1.47 1.3 0 2.33.35 3.1 1.06.65.6.98 1.26.98 1.99h-1.95c0-.26-.17-.55-.5-.87-.41-.41-.93-.62-1.54-.62-.76 0-1.38.25-1.86.75-.55.58-.82 1.42-.82 2.51 0 1.13.28 1.96.85 2.49.46.43 1.08.65 1.85.65.58 0 1.06-.18 1.47-.54.4-.36.67-.85.8-1.46h-2.15z" fill="#0473bb"/>
        <path d="M90.27 82.09v7.48h-1.96v-7.48h-2.83V80.5h7.59v1.59h-2.8z" fill="#0473bb"/>
        <path d="M98.7 86.16v3.41h-1.95v-3.44l-3.23-5.63h2.29l1.96 3.94 1.84-3.94h2.22l-3.13 5.66z" fill="#0473bb"/>
        <path d="M114.46 83.45h-1.95c-.13-.44-.29-.76-.48-.97-.36-.4-.88-.59-1.57-.59-.61 0-1.11.21-1.51.62-.54.55-.81 1.4-.81 2.57 0 .88.18 1.6.53 2.15.41.63 1.01.94 1.78.94.54 0 .99-.15 1.35-.44.36-.29.6-.71.71-1.26h1.95c-.21 1.03-.64 1.83-1.29 2.41-.71.63-1.63.95-2.77.95-1.27 0-2.29-.41-3.06-1.22-.8-.85-1.21-2.03-1.21-3.56 0-1.53.42-2.73 1.25-3.59.78-.81 1.79-1.21 3.04-1.21 1.28 0 2.3.37 3.07 1.1.65.61.97 1.32.97 2.1z" fill="#0473bb"/>
        <path d="M117.78 87.7l-.65 1.87h-2.06l3.33-9.07h2.27l3.28 9.07h-2.11l-.6-1.87h-3.46zm2.23-8.04h-.93c0-.39.04-.69.11-.89.07-.2.23-.39.48-.55.24-.17.37-.34.37-.52s-.05-.3-.14-.38a.568.568 0 00-.33-.11c-.2 0-.34.05-.41.16-.08.11-.11.27-.11.5l-1.02.02c0-.55.16-.95.49-1.2.27-.21.61-.32 1-.32.35 0 .65.07.91.2.45.23.68.59.68 1.1 0 .24-.06.44-.17.6-.12.16-.3.33-.55.5-.26.17-.38.47-.38.89zm-1.71 6.47h2.39l-1.17-3.59-1.22 3.59z" fill="#0473bb"/>
        <path d="M130.63 80.5h1.82v9.07h-1.95l-3.8-6.47-.03 6.47h-1.82V80.5h2.06l3.69 6.32.03-6.32z" fill="#0473bb"/>
        <path d="M138.81 86.2v-1.54h3.9v4.91h-1.3l-.2-1.14c-.39.42-.72.72-.99.9-.53.33-1.17.49-1.92.49-1.2 0-2.19-.4-2.98-1.19-.88-.88-1.31-2.07-1.31-3.59 0-1.34.37-2.45 1.1-3.33.83-.98 1.99-1.47 3.47-1.47 1.3 0 2.33.35 3.1 1.06.65.6.98 1.26.98 1.99h-1.95c0-.26-.17-.55-.5-.87-.41-.41-.93-.62-1.54-.62-.76 0-1.38.25-1.86.75-.55.58-.82 1.42-.82 2.51 0 1.13.28 1.96.85 2.49.46.43 1.08.65 1.85.65.58 0 1.06-.18 1.47-.54.4-.36.67-.85.8-1.46h-2.15z" fill="#0473bb"/>
        <path d="M153.65 85.5h-3.64v4.07h-1.95V80.5h1.95v3.44h3.64V80.5h1.95v9.07h-1.95V85.5z" fill="#0473bb"/>
        <path d="M159.34 87.7l-.65 1.87h-2.06l3.33-9.07h2.27l3.28 9.07h-2.11l-.6-1.87h-3.46zm1.02-8.12l-1.92-1.84h2l1.23 1.84h-1.31zm-.5 6.55h2.39l-1.17-3.59-1.22 3.59z" fill="#0473bb"/>
        <path d="M172.19 80.5h1.82v9.07h-1.95l-3.8-6.47-.03 6.47h-1.82V80.5h2.06l3.69 6.32.03-6.32z" fill="#0473bb"/>
        <path d="M180.37 86.2v-1.54h3.9v4.91h-1.3l-.2-1.14c-.39.42-.72.72-.99.9-.53.33-1.17.49-1.92.49-1.2 0-2.19-.4-2.98-1.19-.88-.88-1.31-2.07-1.31-3.59 0-1.34.37-2.45 1.11-3.33.83-.98 1.99-1.47 3.47-1.47 1.3 0 2.33.35 3.1 1.06.65.6.98 1.26.98 1.99h-1.95c0-.26-.17-.55-.5-.87a2.12 2.12 0 00-1.54-.62c-.76 0-1.38.25-1.86.75-.55.58-.82 1.42-.82 2.51 0 1.13.28 1.96.85 2.49.46.43 1.07.65 1.85.65.58 0 1.06-.18 1.47-.54.4-.36.67-.85.8-1.46h-2.16z" fill="#0473bb"/>
        <path d="M191.78 86.48v3.08h-1.95V80.5h1.95v3.69l3.56-3.69h2.53l-3.82 3.71 4.02 5.36h-2.5l-2.88-3.99-.91.9z" fill="#0473bb"/>
        <path d="M204.69 85.5h-3.64v4.07h-1.95V80.5h1.95v3.44h3.64V80.5h1.95v9.07h-1.95V85.5z" fill="#0473bb"/>
        <path d="M208.19 85.02c0-1.29.29-2.33.88-3.12.46-.63 1.09-1.08 1.89-1.35.57-.2 1.15-.3 1.73-.3.59 0 1.16.1 1.7.29.8.28 1.42.73 1.89 1.35.59.79.88 1.83.88 3.13 0 1.29-.29 2.33-.88 3.13-.46.62-1.09 1.08-1.89 1.36-.56.2-1.13.3-1.7.3-.6 0-1.17-.1-1.72-.29-.79-.29-1.42-.74-1.88-1.35-.6-.8-.9-1.85-.9-3.15zm1.95 0c0 1.14.29 1.99.87 2.55.44.42 1 .64 1.68.64.66 0 1.21-.21 1.65-.64.58-.56.87-1.41.87-2.55s-.29-1.98-.87-2.53c-.44-.42-.99-.63-1.65-.63-.66 0-1.22.21-1.67.63-.59.56-.88 1.4-.88 2.53zm3.34-7.28l1.48 1.84h-1.45l-.83-1.04-.84 1.04h-1.45l1.49-1.84h1.6z" fill="#0473bb"/>
        <path d="M223.82 80.5h1.82v9.07h-1.95l-3.8-6.47-.03 6.47h-1.82V80.5h2.06l3.69 6.32.03-6.32z" fill="#0473bb"/>
        <path d="M232 86.2v-1.54h3.9v4.91h-1.3l-.2-1.14c-.39.42-.72.72-.99.9-.53.33-1.17.49-1.92.49-1.2 0-2.19-.4-2.98-1.19-.88-.88-1.31-2.07-1.31-3.59 0-1.34.37-2.45 1.11-3.33.83-.98 1.99-1.47 3.47-1.47 1.3 0 2.33.35 3.1 1.06.65.6.98 1.26.98 1.99h-1.95c0-.26-.17-.55-.5-.87a2.12 2.12 0 00-1.54-.62c-.76 0-1.38.25-1.86.75-.55.58-.82 1.42-.82 2.51 0 1.13.28 1.96.85 2.49.46.43 1.07.65 1.85.65.58 0 1.06-.18 1.47-.54.4-.36.67-.85.8-1.46H232z" fill="#0473bb"/>
        <path d="M246.71 80.5h2.03l-3.17 9.07h-1.84l-3.15-9.07h2.08l2 6.88 2.05-6.88z" fill="#0473bb"/>
        <path d="M251.85 80.5v9.07h-1.95V80.5h1.95z" fill="#0473bb"/>
        <path d="M260.41 80.5v1.59h-4.94v1.92h4.55v1.59h-4.55v2.35h5.17v1.62h-7.1V80.5h6.87zm-2.51-2.76l1.48 1.84h-1.46l-.83-1.04-.83 1.04h-1.45l1.48-1.84h1.61zm-.06 12.59v1.46h-1.64v-1.46h1.64z" fill="#0473bb"/>
        <path d="M266.28 82.09v7.48h-1.96v-7.48h-2.83V80.5h7.59v1.59h-2.8z" fill="#0473bb"/>
        <path d="M279.5 80.5h1.82v9.07h-1.95l-3.8-6.47-.03 6.47h-1.82V80.5h2.06l3.69 6.32.03-6.32z" fill="#0473bb"/>
        <path d="M285.03 87.7l-.65 1.87h-2.06l3.33-9.07h2.27l3.28 9.07h-2.11l-.6-1.87h-3.46zm.52-1.57h2.39l-1.18-3.59-1.21 3.59z" fill="#0473bb"/>
        <path d="M301.16 80.5v9.07h-1.82v-7.58l-1.77 7.58h-1.92l-1.69-7.58-.03 7.58h-1.82V80.5h2.83l1.7 7.15 1.69-7.15h2.83z" fill="#0473bb"/>
        <path d="M309.64 85.19v1.65h-3.61v-1.65h3.61z" fill="#0473bb"/>
        <path d="M322.27 83.45h-1.95c-.13-.44-.29-.76-.48-.97-.36-.4-.88-.59-1.57-.59-.61 0-1.11.21-1.51.62-.54.55-.81 1.4-.81 2.57 0 .88.18 1.6.53 2.15.41.63 1 .94 1.78.94.54 0 .99-.15 1.35-.44.36-.29.6-.71.71-1.26h1.95c-.21 1.03-.64 1.83-1.29 2.41-.71.63-1.63.95-2.77.95-1.27 0-2.29-.41-3.06-1.22-.8-.85-1.21-2.03-1.21-3.56 0-1.53.42-2.73 1.25-3.59.78-.81 1.79-1.21 3.04-1.21 1.28 0 2.3.37 3.07 1.1.65.61.97 1.32.97 2.1z" fill="#0473bb"/>
        <path d="M327.82 82.09v7.48h-1.96v-7.48h-2.83V80.5h7.59v1.59h-2.8z" fill="#0473bb"/>
        <path d="M339.77 83.45h-1.95c-.13-.44-.29-.76-.48-.97-.36-.4-.88-.59-1.57-.59-.61 0-1.11.21-1.51.62-.54.55-.81 1.4-.81 2.57 0 .88.18 1.6.53 2.15.41.63 1 .94 1.78.94.54 0 .99-.15 1.35-.44.36-.29.6-.71.71-1.26h1.95c-.21 1.03-.64 1.83-1.29 2.41-.71.63-1.63.95-2.77.95-1.27 0-2.29-.41-3.06-1.22-.8-.85-1.21-2.03-1.21-3.56 0-1.53.42-2.73 1.25-3.59.78-.81 1.79-1.21 3.04-1.21 1.28 0 2.3.37 3.07 1.1.65.61.97 1.32.97 2.1z" fill="#0473bb"/>
        <path d="M343.28 86.28v3.28h-1.95V80.5h4.27c.91 0 1.62.26 2.14.77.51.52.77 1.23.77 2.13 0 .64-.18 1.22-.55 1.74-.52.76-1.34 1.14-2.44 1.14h-2.24zm0-1.56h1.82c.62 0 1.05-.19 1.28-.56.12-.2.18-.49.18-.86 0-.44-.13-.75-.4-.95-.27-.2-.71-.29-1.31-.29h-1.56v2.66z" fill="#0473bb"/>
    </g>
</svg>